<?xml version="1.0" encoding="UTF-8"?>
<svg id="Layer_1" data-name="Layer 1" xmlns="http://www.w3.org/2000/svg" width="97.04" height="93.24" xmlns:xlink="http://www.w3.org/1999/xlink" viewBox="0 0 97.04 93.24">
  <defs>
    <style>
      .cls-1 {
        stroke: url(#linear-gradient-2);
      }

      .cls-1, .cls-2, .cls-3, .cls-4, .cls-5, .cls-6 {
        fill: none;
        stroke-miterlimit: 10;
        stroke-width: 2px;
      }

      .cls-2 {
        stroke: url(#linear-gradient-4);
      }

      .cls-3 {
        stroke: url(#linear-gradient-3);
      }

      .cls-4 {
        stroke: url(#linear-gradient-6);
      }

      .cls-5 {
        stroke: url(#linear-gradient-5);
      }

      .cls-6 {
        stroke: url(#linear-gradient);
      }
    </style>
    <linearGradient id="linear-gradient" x1="284.38" y1="46.68" x2="284.38" y2="8.66" gradientTransform="translate(332.75 74.08) rotate(-180)" gradientUnits="userSpaceOnUse">
      <stop offset="0" stop-color="#f4e088"/>
      <stop offset=".2" stop-color="#e1bf52"/>
      <stop offset=".59" stop-color="#b28d2e"/>
      <stop offset="1" stop-color="#6e5b25"/>
    </linearGradient>
    <linearGradient id="linear-gradient-2" x1="-564.52" y1="-678.62" x2="-547.67" y2="-678.62" gradientTransform="translate(-507.57 -641.17) rotate(-180)" gradientUnits="userSpaceOnUse">
      <stop offset="0" stop-color="#6e5b25"/>
      <stop offset=".41" stop-color="#b28d2e"/>
      <stop offset=".8" stop-color="#e1bf52"/>
      <stop offset="1" stop-color="#f4e088"/>
    </linearGradient>
    <linearGradient id="linear-gradient-3" x1="-557.05" y1="-693.38" x2="-527.78" y2="-693.38" xlink:href="#linear-gradient-2"/>
    <linearGradient id="linear-gradient-4" x1="-556.8" y1="-693.42" x2="-528.13" y2="-693.42" xlink:href="#linear-gradient-2"/>
    <linearGradient id="linear-gradient-5" x1="-584.39" y1="-693.42" x2="-555.04" y2="-693.42" xlink:href="#linear-gradient-2"/>
    <linearGradient id="linear-gradient-6" x1="-584.05" y1="-693.42" x2="-555.38" y2="-693.42" xlink:href="#linear-gradient-2"/>
  </defs>
  <line class="cls-6" x1="48.36" y1="65.42" x2="48.36" y2="27.4"/>
  <path class="cls-1" d="M55.86,48.16c.09-.53.09-1.05.09-1.58,0-7.4-2.76-14.19-7.4-19.23l-.04.04c-4.6,5.04-7.4,11.78-7.4,19.19,0,.48,0,.92,0,1.4v.04"/>
  <g>
    <path class="cls-3" d="M29.63,57.51c5.05,5.05,11.53,7.82,18.09,8.32.42.03.78-.33.75-.75-.48-6.58-3.27-13.03-8.32-18.09-5.26-5.26-12.03-8.07-18.89-8.37.33,6.83,3.11,13.63,8.37,18.89Z"/>
    <line class="cls-2" x1="21.26" y1="38.63" x2="48.52" y2="65.88"/>
  </g>
  <g>
    <path class="cls-5" d="M56.89,46.99c-5.26,5.26-8.04,12.06-8.37,18.89,6.86-.3,13.63-3.11,18.89-8.37,5.26-5.26,8.07-12.03,8.37-18.89-6.83.33-13.63,3.11-18.89,8.37Z"/>
    <line class="cls-4" x1="75.78" y1="38.63" x2="48.52" y2="65.88"/>
  </g>
</svg>